grf
version=1
nRows=87
nColumns=10
inDegrees=yes
endheader
time	ground_force_3_vx	ground_force_3_vy	ground_force_3_vz	ground_force_3_px	ground_force_3_py	ground_force_3_pz	ground_moment_3_mx	ground_moment_3_my	ground_moment_3_mz
0.742000	0.000000	0.000000	0.000000	0.934515	0.000000	-0.258291	0.000000	0.000000	0.000000
0.743000	0.000000	0.000000	0.000000	0.935881	0.000000	-0.259107	0.000000	0.000000	0.000000
0.744000	0.000000	0.000000	0.000000	0.937254	0.000000	-0.259928	0.000000	0.000000	0.000000
0.745000	0.000000	0.000000	0.000000	0.938716	0.000000	-0.260801	0.000000	0.000000	0.000000
0.746000	0.000000	0.000000	0.000000	0.940370	0.000000	-0.261789	0.000000	0.000000	0.000000
0.747000	0.000000	0.000000	0.000000	0.942377	0.000000	-0.262989	0.000000	0.000000	0.000000
0.748000	0.000000	0.000000	0.000000	0.945029	0.000000	-0.264573	0.000000	0.000000	0.000000
0.749000	0.000000	0.000000	0.000000	0.948956	0.000000	-0.266920	0.000000	0.000000	0.000000
0.750000	0.000000	0.000000	0.000000	0.955879	0.000000	-0.271057	0.000000	0.000000	0.000000
0.751000	0.000000	0.000000	0.000000	0.972867	0.000000	-0.281208	0.000000	0.000000	0.000000
0.752000	0.000000	0.000000	0.000000	1.107804	0.000000	-0.361841	0.000000	0.000000	0.000000
0.753000	0.000000	0.000000	0.000000	0.869062	0.000000	-0.219179	0.000000	0.000000	0.000000
0.754000	0.000000	0.000000	0.000000	0.908492	0.000000	-0.242740	0.000000	0.000000	0.000000
0.755000	0.000000	0.000000	0.000000	0.919271	0.000000	-0.249182	0.000000	0.000000	0.000000
0.756000	0.000000	0.000000	0.000000	0.924520	0.000000	-0.252318	0.000000	0.000000	0.000000
0.757000	0.000000	0.000000	0.000000	0.927770	0.000000	-0.254260	0.000000	0.000000	0.000000
0.758000	0.000000	0.000000	0.000000	0.930088	0.000000	-0.255645	0.000000	0.000000	0.000000
0.759000	0.000000	0.000000	0.000000	0.931914	0.000000	-0.256737	0.000000	0.000000	0.000000
0.760000	0.000000	0.000000	0.000000	0.933468	0.000000	-0.257665	0.000000	0.000000	0.000000
0.761000	0.000000	0.000000	0.000000	0.934880	0.000000	-0.258509	0.000000	0.000000	0.000000
0.762000	0.000000	0.000000	0.000000	0.936240	0.000000	-0.259322	0.000000	0.000000	0.000000
0.763000	0.000000	0.000000	0.000000	0.937628	0.000000	-0.260151	0.000000	0.000000	0.000000
0.764000	0.000000	0.000000	0.000000	0.939129	0.000000	-0.261048	0.000000	0.000000	0.000000
0.765000	0.000000	0.000000	0.000000	0.940857	0.000000	-0.262081	0.000000	0.000000	0.000000
0.766000	0.000000	0.000000	0.000000	0.942998	0.000000	-0.263360	0.000000	0.000000	0.000000
0.767000	0.000000	0.000000	0.000000	0.945903	0.000000	-0.265096	0.000000	0.000000	0.000000
0.768000	0.000000	0.000000	0.000000	0.950372	0.000000	-0.267766	0.000000	0.000000	0.000000
0.769000	0.000000	0.000000	0.000000	0.958776	0.000000	-0.272788	0.000000	0.000000	0.000000
0.770000	0.000000	0.000000	0.000000	0.982790	0.000000	-0.287138	0.000000	0.000000	0.000000
0.771000	0.000000	0.000000	0.000000	3.962239	0.000000	-2.067532	0.000000	0.000000	0.000000
0.772000	0.000000	0.000000	0.000000	0.887182	0.000000	-0.230007	0.000000	0.000000	0.000000
0.773000	0.000000	0.000000	0.000000	0.912350	0.000000	-0.245046	0.000000	0.000000	0.000000
0.774000	0.000000	0.000000	0.000000	0.920967	0.000000	-0.250195	0.000000	0.000000	0.000000
0.775000	0.000000	0.000000	0.000000	0.925511	0.000000	-0.252910	0.000000	0.000000	0.000000
0.776000	0.000000	0.000000	0.000000	0.928449	0.000000	-0.254666	0.000000	0.000000	0.000000
0.777000	0.000000	0.000000	0.000000	0.930607	0.000000	-0.255956	0.000000	0.000000	0.000000
0.778000	0.000000	0.000000	0.000000	0.932345	0.000000	-0.256994	0.000000	0.000000	0.000000
0.779000	0.000000	0.000000	0.000000	0.933851	0.000000	-0.257894	0.000000	0.000000	0.000000
0.780000	0.000000	0.000000	0.000000	0.935241	0.000000	-0.258725	0.000000	0.000000	0.000000
0.781000	0.000000	0.000000	0.000000	0.936601	0.000000	-0.259537	0.000000	0.000000	0.000000
0.782000	0.000000	0.000000	0.000000	0.938010	0.000000	-0.260379	0.000000	0.000000	0.000000
0.783000	0.000000	0.000000	0.000000	0.939558	0.000000	-0.261304	0.000000	0.000000	0.000000
0.784000	0.000000	0.000000	0.000000	0.941373	0.000000	-0.262389	0.000000	0.000000	0.000000
0.785000	0.000000	0.000000	0.000000	0.943670	0.000000	-0.263762	0.000000	0.000000	0.000000
0.786000	0.000000	0.000000	0.000000	0.946879	0.000000	-0.265679	0.000000	0.000000	0.000000
0.787000	0.000000	0.000000	0.000000	0.952033	0.000000	-0.268759	0.000000	0.000000	0.000000
0.788000	0.000000	0.000000	0.000000	0.962508	0.000000	-0.275018	0.000000	0.000000	0.000000
0.789000	0.000000	0.000000	0.000000	0.999606	0.000000	-0.297186	0.000000	0.000000	0.000000
0.790000	0.000000	0.000000	0.000000	0.741603	0.000000	-0.143015	0.000000	0.000000	0.000000
0.791000	0.000000	0.000000	0.000000	0.897682	0.000000	-0.236281	0.000000	0.000000	0.000000
0.792000	0.000000	0.000000	0.000000	0.915331	0.000000	-0.246827	0.000000	0.000000	0.000000
0.793000	0.000000	0.000000	0.000000	0.922409	0.000000	-0.251057	0.000000	0.000000	0.000000
0.794000	0.000000	0.000000	0.000000	0.926396	0.000000	-0.253439	0.000000	0.000000	0.000000
0.795000	0.000000	0.000000	0.000000	0.929076	0.000000	-0.255040	0.000000	0.000000	0.000000
0.796000	0.000000	0.000000	0.000000	0.931098	0.000000	-0.256249	0.000000	0.000000	0.000000
0.797000	0.000000	0.000000	0.000000	0.932760	0.000000	-0.257242	0.000000	0.000000	0.000000
0.798000	0.000000	0.000000	0.000000	0.934226	0.000000	-0.258118	0.000000	0.000000	0.000000
0.799000	0.000000	0.000000	0.000000	0.935600	0.000000	-0.258939	0.000000	0.000000	0.000000
0.800000	0.000000	0.000000	0.000000	0.936966	0.000000	-0.259755	0.000000	0.000000	0.000000
0.801000	0.000000	0.000000	0.000000	0.938401	0.000000	-0.260613	0.000000	0.000000	0.000000
0.802000	0.000000	0.000000	0.000000	0.940005	0.000000	-0.261571	0.000000	0.000000	0.000000
0.803000	0.000000	0.000000	0.000000	0.941921	0.000000	-0.262716	0.000000	0.000000	0.000000
0.804000	0.000000	0.000000	0.000000	0.944404	0.000000	-0.264200	0.000000	0.000000	0.000000
0.805000	0.000000	0.000000	0.000000	0.947983	0.000000	-0.266338	0.000000	0.000000	0.000000
0.806000	0.000000	0.000000	0.000000	0.954020	0.000000	-0.269946	0.000000	0.000000	0.000000
0.807000	0.000000	0.000000	0.000000	0.967523	0.000000	-0.278015	0.000000	0.000000	0.000000
0.808000	0.000000	0.000000	0.000000	1.034528	0.000000	-0.318054	0.000000	0.000000	0.000000
0.809000	0.000000	0.000000	0.000000	0.841879	0.000000	-0.202936	0.000000	0.000000	0.000000
0.810000	0.000000	0.000000	0.000000	0.904555	0.000000	-0.240388	0.000000	0.000000	0.000000
0.811000	0.000000	0.000000	0.000000	0.917711	0.000000	-0.248250	0.000000	0.000000	0.000000
0.812000	0.000000	0.000000	0.000000	0.923654	0.000000	-0.251801	0.000000	0.000000	0.000000
0.813000	0.000000	0.000000	0.000000	0.927194	0.000000	-0.253916	0.000000	0.000000	0.000000
0.814000	0.000000	0.000000	0.000000	0.929658	0.000000	-0.255388	0.000000	0.000000	0.000000
0.815000	0.000000	0.000000	0.000000	0.931564	0.000000	-0.256527	0.000000	0.000000	0.000000
0.816000	0.000000	0.000000	0.000000	0.933162	0.000000	-0.257482	0.000000	0.000000	0.000000
0.817000	0.000000	0.000000	0.000000	0.934594	0.000000	-0.258338	0.000000	0.000000	0.000000
0.818000	0.000000	0.000000	0.000000	0.935959	0.000000	-0.259154	0.000000	0.000000	0.000000
0.819000	0.000000	0.000000	0.000000	0.937335	0.000000	-0.259976	0.000000	0.000000	0.000000
0.820000	0.000000	0.000000	0.000000	0.938804	0.000000	-0.260854	0.000000	0.000000	0.000000
0.821000	0.000000	0.000000	0.000000	0.940473	0.000000	-0.261851	0.000000	0.000000	0.000000
0.822000	0.000000	0.000000	0.000000	0.942507	0.000000	-0.263067	0.000000	0.000000	0.000000
0.823000	0.000000	0.000000	0.000000	0.945210	0.000000	-0.264682	0.000000	0.000000	0.000000
0.824000	0.000000	0.000000	0.000000	0.949244	0.000000	-0.267092	0.000000	0.000000	0.000000
0.825000	0.000000	0.000000	0.000000	0.956449	0.000000	-0.271398	0.000000	0.000000	0.000000
0.826000	0.000000	0.000000	0.000000	0.974652	0.000000	-0.282275	0.000000	0.000000	0.000000
0.827000	0.000000	0.000000	0.000000	1.151897	0.000000	-0.388189	0.000000	0.000000	0.000000
0.828000	0.000000	0.000000	0.000000	0.874014	0.000000	-0.222138	0.000000	0.000000	0.000000
